Coordinates
version=1
nRows=20
nColumns=38
inDegrees=no

Units are S.I. units (second, meters, Newtons, ...)
If the header above contains a line with 'inDegrees', this indicates whether rotational values are in degrees (yes) or radians (no).

endheader
time	pelvis_tilt	pelvis_list	pelvis_rotation	pelvis_tx	pelvis_ty	pelvis_tz	hip_flexion_r	hip_adduction_r	hip_rotation_r	knee_angle_r	ankle_angle_r	subtalar_angle_r	mtp_angle_r	hip_flexion_l	hip_adduction_l	hip_rotation_l	knee_angle_l	ankle_angle_l	subtalar_angle_l	mtp_angle_l	lumbar_extension	lumbar_bending	lumbar_rotation	arm_flex_r	arm_add_r	arm_rot_r	elbow_flex_r	pro_sup_r	wrist_flex_r	wrist_dev_r	arm_flex_l	arm_add_l	arm_rot_l	elbow_flex_l	pro_sup_l	wrist_flex_l	wrist_dev_l
21.29	0.601013	1.45684	0.8084	0.809762	-0.818847	0.962234	0.0160185	0.113611	-0.172746	0.210143	0.200629	0	0	0.253204	-0.149111	-0.257161	0.249242	0.0407612	0	0	-0.152943	0.139476	0.084189	0.850286	-0.138873	0.310095	1.091	1.5708	0	0	0.854382	-0.268527	0.158686	0.929165	0.778373	0	0
21.3	0.59552	1.4564	0.813918	0.809246	-0.818206	0.962306	0.016836	0.112408	-0.173477	0.211242	0.200327	0	0	0.253281	-0.148373	-0.258097	0.249322	0.0419226	0	0	-0.153775	0.139161	0.0853387	0.853316	-0.139463	0.309469	1.08855	1.5708	0	0	0.859416	-0.268167	0.163487	0.923725	0.777389	0	0
21.31	0.589639	1.45604	0.819884	0.80872	-0.817536	0.962374	0.0175736	0.111204	-0.173824	0.21225	0.199867	0	0	0.25315	-0.147426	-0.258889	0.249025	0.0427048	0	0	-0.154634	0.138762	0.0865128	0.85628	-0.139963	0.308271	1.08593	1.5708	0	0	0.864125	-0.267812	0.167835	0.919268	0.776713	0	0
21.32	0.585208	1.45566	0.824668	0.808154	-0.816875	0.962424	0.0182289	0.110134	-0.174004	0.213388	0.199664	0	0	0.25297	-0.146465	-0.259029	0.248603	0.0432753	0	0	-0.155683	0.138501	0.0875497	0.859642	-0.140496	0.307012	1.08273	1.5708	0	0	0.869032	-0.267134	0.17291	0.914959	0.775851	0	0
21.33	0.585197	1.45513	0.825399	0.807578	-0.816288	0.962451	0.0187627	0.109456	-0.174908	0.214812	0.199754	0	0	0.252827	-0.145933	-0.258377	0.248374	0.0440322	0	0	-0.157246	0.138569	0.0886293	0.863405	-0.141294	0.305244	1.07959	1.5708	0	0	0.874421	-0.266124	0.179318	0.910858	0.77449	0	0
21.34	0.418901	1.45682	0.990093	0.807642	-0.815989	0.960261	0.0265143	0.0941718	-0.166648	0.20853	0.206742	0	0	0.263385	-0.128712	-0.260669	0.249651	0.0458359	0	0	-0.145505	0.11754	0.089386	0.863601	-0.139773	0.298462	1.07726	1.5708	0	0	0.883789	-0.270345	0.20088	0.905858	0.769614	0	0
21.35	0.422231	1.45586	0.987143	0.807138	-0.815376	0.960288	0.0271377	0.0939605	-0.168547	0.209703	0.206736	0	0	0.263393	-0.128779	-0.260161	0.249553	0.046631	0	0	-0.1466	0.118156	0.0896141	0.867988	-0.140998	0.299459	1.07385	1.5708	0	0	0.887323	-0.269864	0.204625	0.903892	0.768455	0	0
21.36	0.585836	1.45226	0.825915	0.806037	-0.81442	0.962486	0.0205805	0.108194	-0.178659	0.217925	0.20008	0	0	0.253197	-0.145497	-0.256914	0.24811	0.0464735	0	0	-0.160186	0.139354	0.0908503	0.87518	-0.145285	0.304423	1.07032	1.5708	0	0	0.887299	-0.264859	0.199808	0.902137	0.768564	0	0
21.37	0.590325	1.45157	0.822521	0.805449	-0.813801	0.9625	0.0208421	0.108258	-0.180566	0.219067	0.19984	0	0	0.25303	-0.145334	-0.255596	0.248173	0.0476146	0	0	-0.161575	0.13991	0.0902057	0.879973	-0.147628	0.307493	1.06722	1.5708	0	0	0.890499	-0.263286	0.200706	0.900341	0.768494	0	0
21.38	0.588673	1.4506	0.825738	0.804846	-0.813278	0.96244	0.0218348	0.108037	-0.18121	0.22011	0.199791	0	0	0.253999	-0.144706	-0.253628	0.248452	0.0484116	0	0	-0.162239	0.13993	0.0893589	0.884592	-0.150075	0.309664	1.06411	1.5708	0	0	0.894022	-0.261643	0.20305	0.898564	0.76861	0	0
21.39	0.587678	1.44983	0.827956	0.804259	-0.812737	0.962428	0.0224916	0.107588	-0.181995	0.220993	0.199538	0	0	0.254421	-0.144033	-0.252308	0.248213	0.0489046	0	0	-0.163164	0.139853	0.0890306	0.889173	-0.152436	0.311056	1.06045	1.5708	0	0	0.897284	-0.259656	0.20542	0.896967	0.768834	0	0
21.4	0.587345	1.44949	0.829298	0.803678	-0.812187	0.962494	0.0226247	0.106772	-0.183273	0.22169	0.199357	0	0	0.254214	-0.14323	-0.251981	0.247777	0.0490491	0	0	-0.16456	0.139545	0.0888699	0.893736	-0.154946	0.312596	1.05632	1.5708	0	0	0.900125	-0.25743	0.207093	0.895818	0.769263	0	0
21.41	0.58922	1.44942	0.828526	0.803113	-0.811653	0.962594	0.0222587	0.106049	-0.18478	0.222255	0.199236	0	0	0.253746	-0.142452	-0.251263	0.247573	0.0490965	0	0	-0.166474	0.139178	0.0886233	0.898276	-0.157419	0.314183	1.05233	1.5708	0	0	0.902868	-0.254733	0.206973	0.895015	0.770051	0	0
21.42	0.592945	1.44954	0.826249	0.802527	-0.811166	0.962706	0.0215331	0.105416	-0.186551	0.222667	0.199004	0	0	0.25314	-0.141589	-0.249846	0.247405	0.049108	0	0	-0.168812	0.138828	0.0881359	0.903243	-0.159829	0.315755	1.04784	1.5708	0	0	0.905887	-0.251783	0.206073	0.894318	0.771152	0	0
21.43	0.730506	1.45975	0.743522	0.793132	-0.811125	0.963977	0.000271308	0.0990775	-0.252841	0.217207	0.199863	0	0	0.248212	-0.121802	-0.179814	0.249377	0.0423488	0	0	-0.189511	0.160302	0.0363793	0.924693	-0.170991	0.33145	1.04397	1.5708	0	0	0.913805	-0.242462	0.198564	0.892468	0.773856	0	0
21.44	0.75332	1.46144	0.725693	0.792219	-0.810695	0.964224	-0.00355328	0.0983258	-0.261398	0.217022	0.200264	0	0	0.244991	-0.119781	-0.17105	0.248182	0.0411569	0	0	-0.194499	0.160874	0.0317205	0.932079	-0.1734	0.336875	1.03836	1.5708	0	0	0.918127	-0.239827	0.195758	0.890575	0.775825	0	0
21.45	0.750671	1.46116	0.728763	0.791715	-0.810167	0.964222	-0.00377733	0.0976199	-0.262416	0.216915	0.200622	0	0	0.244839	-0.11908	-0.170423	0.248025	0.0415822	0	0	-0.195763	0.160287	0.0316878	0.937705	-0.175445	0.34004	1.03317	1.5708	0	0	0.92149	-0.236937	0.194491	0.888259	0.777814	0	0
21.46	0.742695	1.46071	0.736395	0.791239	-0.809696	0.964159	-0.00326869	0.0966602	-0.262328	0.216906	0.201281	0	0	0.245259	-0.118226	-0.170357	0.248136	0.042589	0	0	-0.196509	0.159464	0.0325953	0.943926	-0.17733	0.343679	1.02694	1.5708	0	0	0.924944	-0.233897	0.193553	0.885432	0.781502	0	0
21.47	0.733087	1.46058	0.74503	0.790827	-0.809255	0.964097	-0.00280395	0.0953564	-0.261892	0.216941	0.20189	0	0	0.24561	-0.117179	-0.170589	0.248557	0.043608	0	0	-0.197419	0.158077	0.0341218	0.949133	-0.179189	0.345012	1.0227	1.5708	0	0	0.928486	-0.231278	0.193584	0.883147	0.784693	0	0
21.48	0.725031	1.46153	0.751376	0.790498	-0.808803	0.964118	-0.00344415	0.0934653	-0.260835	0.216619	0.202282	0	0	0.24498	-0.115629	-0.170929	0.249303	0.0444779	0	0	-0.199312	0.155783	0.0361571	0.954134	-0.181091	0.346819	1.0189	1.5708	0	0	0.932081	-0.228913	0.19333	0.880886	0.788275	0	0
